<svg xmlns="http://www.w3.org/2000/svg" viewBox="0 0 326.21 326.21" style="enable-background:new 0 0 326.21 326.21" xml:space="preserve"><path d="m325.637 189.233-56.043-135.3a7.497 7.497 0 0 0-9.799-4.059L73.176 127.176a7.497 7.497 0 0 0-4.058 9.799l56.051 135.3a7.501 7.501 0 0 0 6.932 4.632c.957 0 1.929-.185 2.867-.573l186.611-77.302a7.5 7.5 0 0 0 4.058-9.799zm-116.963 1.128L94.596 134.539l155.26-64.312-41.182 120.134zm1.042 17.209a7.483 7.483 0 0 0 6.167.193 7.498 7.498 0 0 0 4.224-4.497l16.07-46.881 64.599 35.028-156.488 64.824 20.911-70.45 44.517 21.783zm94.233-31.5-62.838-34.073 22.064-64.365 40.774 98.438zM90.414 149.191l61.124 29.91-20.342 68.533-40.782-98.443zM7.5 166.616h43.536a7.5 7.5 0 0 0 7.5-7.5 7.5 7.5 0 0 0-7.5-7.5H7.5a7.5 7.5 0 0 0 0 15zM82.073 236.893H7.5a7.5 7.5 0 0 0-7.5 7.5 7.5 7.5 0 0 0 7.5 7.5h74.573a7.5 7.5 0 0 0 7.5-7.5 7.5 7.5 0 0 0-7.5-7.5zM7.5 209.254h59.059a7.5 7.5 0 0 0 7.5-7.5 7.5 7.5 0 0 0-7.5-7.5H7.5a7.5 7.5 0 0 0-7.5 7.5 7.5 7.5 0 0 0 7.5 7.5z"/></svg>